<svg width="44" height="16" viewBox="0 0 44 16" fill="none" xmlns="http://www.w3.org/2000/svg">
<path d="M0.826 15V0.611999H3.708L6.26 7.652C6.42133 8.10667 6.57533 8.576 6.722 9.06C6.88333 9.52933 7.03733 9.99867 7.184 10.468H7.272C7.43333 9.99867 7.58733 9.52933 7.734 9.06C7.88067 8.576 8.02733 8.10667 8.174 7.652L10.66 0.611999H13.564V15H11.21V8.422C11.21 7.96733 11.2247 7.476 11.254 6.948C11.298 6.40533 11.342 5.86267 11.386 5.32C11.4447 4.77733 11.496 4.286 11.54 3.846H11.452L10.286 7.19L7.932 13.658H6.414L4.038 7.19L2.894 3.846H2.806C2.85 4.286 2.894 4.77733 2.938 5.32C2.99667 5.86267 3.04067 6.40533 3.07 6.948C3.114 7.476 3.136 7.96733 3.136 8.422V15H0.826ZM18.7586 15.264C18.3039 15.264 17.9152 15.1027 17.5926 14.78C17.2699 14.4573 17.1086 14.0467 17.1086 13.548C17.1086 13.0493 17.2699 12.6387 17.5926 12.316C17.9152 11.9933 18.3039 11.832 18.7586 11.832C19.2279 11.832 19.6166 11.9933 19.9246 12.316C20.2326 12.6387 20.3866 13.0493 20.3866 13.548C20.3866 14.0467 20.2326 14.4573 19.9246 14.78C19.6166 15.1027 19.2279 15.264 18.7586 15.264Z" fill="black"/>
<path d="M23.9372 15V0.611999H26.8192L29.3712 7.652C29.5325 8.10667 29.6865 8.576 29.8332 9.06C29.9945 9.52933 30.1485 9.99867 30.2952 10.468H30.3832C30.5445 9.99867 30.6985 9.52933 30.8452 9.06C30.9918 8.576 31.1385 8.10667 31.2852 7.652L33.7712 0.611999H36.6752V15H34.3212V8.422C34.3212 7.96733 34.3358 7.476 34.3652 6.948C34.4092 6.40533 34.4532 5.86267 34.4972 5.32C34.5558 4.77733 34.6072 4.286 34.6512 3.846H34.5632L33.3972 7.19L31.0432 13.658H29.5252L27.1492 7.19L26.0052 3.846H25.9172C25.9612 4.286 26.0052 4.77733 26.0492 5.32C26.1078 5.86267 26.1518 6.40533 26.1812 6.948C26.2252 7.476 26.2472 7.96733 26.2472 8.422V15H23.9372ZM41.8698 15.264C41.4151 15.264 41.0264 15.1027 40.7038 14.78C40.3811 14.4573 40.2198 14.0467 40.2198 13.548C40.2198 13.0493 40.3811 12.6387 40.7038 12.316C41.0264 11.9933 41.4151 11.832 41.8698 11.832C42.3391 11.832 42.7278 11.9933 43.0358 12.316C43.3438 12.6387 43.4978 13.0493 43.4978 13.548C43.4978 14.0467 43.3438 14.4573 43.0358 14.78C42.7278 15.1027 42.3391 15.264 41.8698 15.264Z" fill="#EF9D5F"/>
</svg>
